<svg width="160" height="44" viewBox="0 0 160 44" fill="none" xmlns="http://www.w3.org/2000/svg">
<path d="M55.2632 3.27873V6.44065H62.1847V9.69435H55.2632V12.8813H62.8003V16.135H51.9023V0H62.792V3.27873H55.2632Z" fill="white" fill-opacity="0.5"/>
<path d="M74.2555 4.34668V15.501C72.6499 16.0767 71.1691 16.3687 69.8048 16.3687C68.349 16.3687 67.1676 16.0266 66.2442 15.3425C65.3208 14.6584 64.8633 13.5405 64.8633 11.997V4.34668H68.0162V11.8135C68.0162 12.4642 68.1992 12.9481 68.5736 13.2735C68.9396 13.5905 69.4138 13.749 69.9878 13.749C70.3788 13.749 70.7615 13.6823 71.1192 13.5405V4.34668H74.2555Z" fill="white" fill-opacity="0.5"/>
<path d="M81.1522 4.12158C81.5931 4.12158 82.1422 4.19667 82.8077 4.34684V6.8914C82.0839 6.69117 81.3851 6.72454 80.7113 6.99151C80.0374 7.25848 79.7047 7.70899 79.7047 8.34305V16.1269H76.5518V8.30967C76.5518 6.99151 77.0176 5.96534 77.9577 5.22283C78.8977 4.48032 79.9626 4.12158 81.1522 4.12158Z" fill="white" fill-opacity="0.5"/>
<path d="M83.9473 12.172V8.32591C83.9473 7.00775 84.4131 5.98158 85.3449 5.23907C86.2766 4.50491 87.383 4.12948 88.6725 4.11279C89.9453 4.12948 91.0434 4.50491 91.9751 5.23907C92.9069 5.97324 93.3727 6.99941 93.3727 8.32591V12.172C93.3727 13.5068 92.9152 14.533 91.9918 15.2588C91.0684 15.9763 89.9619 16.3434 88.6808 16.36C87.3913 16.3434 86.2849 15.9763 85.3532 15.2588C84.4131 14.5413 83.9473 13.5068 83.9473 12.172ZM88.6642 6.96604C88.2565 6.96604 87.8905 7.07449 87.5744 7.28306C87.2582 7.49163 87.1002 7.77529 87.1002 8.12569V12.247C87.1002 12.6141 87.2666 12.9145 87.591 13.1564C87.9154 13.3983 88.2732 13.5235 88.6725 13.5235C89.0468 13.5235 89.4045 13.3983 89.729 13.1564C90.0534 12.9145 90.2198 12.6141 90.2198 12.247V8.12569C90.2198 7.77529 90.0618 7.49997 89.7456 7.28306C89.4129 7.06615 89.0552 6.96604 88.6642 6.96604Z" fill="white" fill-opacity="0.5"/>
<path d="M95.4277 20.4568V5.00592C96.9668 4.41358 98.4975 4.12158 100.012 4.12158C103.264 4.12158 104.886 5.4314 104.886 8.05939V12.3643C104.886 13.6658 104.462 14.6586 103.605 15.3343C102.748 16.0101 101.717 16.3521 100.511 16.3688C99.8285 16.3688 99.1963 16.2353 98.6056 15.96V20.4652H95.4277V20.4568ZM98.6056 6.80797V13.6574C98.9217 13.841 99.3294 13.9327 99.8285 13.9327C100.369 13.9327 100.827 13.7992 101.193 13.5323C101.559 13.2653 101.734 12.8732 101.734 12.3643V7.89253C101.734 7.43368 101.559 7.09997 101.209 6.86637C100.86 6.64111 100.419 6.52431 99.8701 6.52431C99.3876 6.53266 98.9633 6.62443 98.6056 6.80797Z" fill="white" fill-opacity="0.5"/>
<path d="M113.513 12.6308L115.576 14.1325C115.152 14.9084 114.561 15.4674 113.804 15.8261C113.047 16.1848 112.265 16.36 111.466 16.36C110.177 16.36 109.071 15.993 108.131 15.2588C107.19 14.5246 106.725 13.4985 106.725 12.172V8.2842C106.725 6.94935 107.199 5.92318 108.139 5.19736C109.087 4.47988 110.21 4.11279 111.508 4.11279C112.781 4.11279 113.854 4.45485 114.728 5.12227C115.601 5.79804 116.042 6.79918 116.042 8.13403V11.5963H109.894V12.1219C109.894 12.5641 110.069 12.9061 110.418 13.1481C110.768 13.39 111.184 13.5151 111.666 13.5151C112.54 13.5151 113.147 13.2231 113.513 12.6308ZM113.08 9.26031V8.19243C113.08 7.80032 112.931 7.49163 112.623 7.28306C112.323 7.07449 111.957 6.96604 111.533 6.96604C111.092 6.96604 110.709 7.07449 110.385 7.29975C110.061 7.51666 109.894 7.82535 109.894 8.21746V9.26031H113.08Z" fill="white" fill-opacity="0.5"/>
<path d="M117.415 12.6312C117.415 11.3548 117.822 10.3953 118.629 9.75294C119.436 9.11054 120.426 8.78517 121.591 8.78517C122.29 8.78517 122.98 8.91032 123.679 9.15226V8.30963C123.679 7.21672 123.071 6.67444 121.865 6.67444C121.441 6.67444 120.992 6.7829 120.526 6.99147C120.06 7.20004 119.677 7.45867 119.394 7.76735L117.855 6.10713C118.979 4.81399 120.393 4.15491 122.098 4.12988C123.388 4.12988 124.477 4.48862 125.376 5.21445C126.274 5.93193 126.724 6.96644 126.724 8.31798V15.5095C125.193 16.0851 123.72 16.3771 122.298 16.3771C120.676 16.3771 119.461 16.0434 118.646 15.3843C117.822 14.7086 117.415 13.7992 117.415 12.6312ZM123.587 13.7658V11.3798C123.105 11.1962 122.622 11.1045 122.156 11.1045C121.582 11.1045 121.15 11.238 120.85 11.4882C120.559 11.7469 120.409 12.0973 120.409 12.5311C120.409 13.4572 121.025 13.916 122.248 13.916C122.73 13.9243 123.18 13.8743 123.587 13.7658Z" fill="white" fill-opacity="0.5"/>
<path d="M128.986 16.1348V5.13896C130.376 4.45485 131.79 4.11279 133.229 4.11279C134.169 4.11279 135.009 4.24628 135.75 4.52159C136.49 4.7969 137.114 5.2641 137.613 5.93153C138.112 6.59895 138.362 7.42489 138.362 8.40934V16.1264H135.234V8.52614C135.234 8.00889 135.059 7.61677 134.71 7.35815C134.36 7.09118 133.936 6.95769 133.437 6.95769C132.954 6.95769 132.522 7.06615 132.139 7.27472V16.1264H128.986V16.1348Z" fill="white" fill-opacity="0.5"/>
<path d="M51.9023 27.3311H57.8005C59.5226 27.3311 60.9784 27.7732 62.1597 28.6659C63.341 29.5502 63.9317 30.8517 63.9317 32.5703V38.3019C63.9317 40.0038 63.3493 41.2802 62.1764 42.1479C61.0034 43.0155 59.5475 43.441 57.8089 43.441H51.9107V27.3311H51.9023ZM55.2383 40.0705H57.8005C58.5992 40.0705 59.2647 39.9287 59.7888 39.6367C60.3129 39.3447 60.5708 38.9025 60.5708 38.2935V32.562C60.5708 31.9363 60.3046 31.4774 59.7805 31.1604C59.2481 30.8517 58.5908 30.6932 57.8089 30.6932H55.2383V40.0705Z" fill="white" fill-opacity="0.5"/>
<path d="M65.5454 39.9369C65.5454 38.6604 65.953 37.701 66.76 37.0586C67.5669 36.4162 68.5569 36.0908 69.7216 36.0908C70.4204 36.0908 71.1108 36.216 71.8096 36.4579V35.6153C71.8096 34.5224 71.2024 33.9801 69.9961 33.9801C69.5718 33.9801 69.1226 34.0886 68.6567 34.2971C68.1909 34.5057 67.8082 34.7643 67.5253 35.073L65.9863 33.4128C67.1094 32.1197 68.5236 31.4606 70.229 31.4355C71.5185 31.4355 72.6083 31.7943 73.5067 32.5201C74.4052 33.2376 74.8544 34.2721 74.8544 35.6236V42.8151C73.3237 43.3908 71.8512 43.6828 70.4287 43.6828C68.8065 43.6828 67.5919 43.3491 66.7766 42.69C65.953 42.0142 65.5454 41.1049 65.5454 39.9369ZM71.7181 41.0715V38.6855C71.2356 38.5019 70.7531 38.4101 70.2873 38.4101C69.7132 38.4101 69.2807 38.5436 68.9812 38.7939C68.69 39.0525 68.5403 39.4029 68.5403 39.8368C68.5403 40.7628 69.1559 41.2217 70.3788 41.2217C70.8613 41.23 71.3105 41.18 71.7181 41.0715Z" fill="white" fill-opacity="0.5"/>
<path d="M82.6327 40.6881V43.2827C81.0271 43.8167 79.6961 43.7332 78.6396 43.0324C77.583 42.3317 77.0589 41.0886 77.0756 39.3032V29.0332H79.9789L80.2035 31.6528H82.2916V34.5395H80.2035V39.2698C80.2035 39.9373 80.3949 40.3794 80.7859 40.6047C81.1685 40.8299 81.7841 40.855 82.6327 40.6881Z" fill="white" fill-opacity="0.5"/>
<path d="M83.7642 39.9369C83.7642 38.6604 84.1718 37.701 84.9787 37.0586C85.7857 36.4162 86.7756 36.0908 87.9403 36.0908C88.6391 36.0908 89.3296 36.216 90.0284 36.4579V35.6153C90.0284 34.5224 89.4211 33.9801 88.2148 33.9801C87.7906 33.9801 87.3413 34.0886 86.8755 34.2971C86.4096 34.5057 86.0269 34.7643 85.7441 35.073L84.2051 33.4128C85.3281 32.1197 86.7424 31.4606 88.4478 31.4355C89.7372 31.4355 90.827 31.7943 91.7255 32.5201C92.6239 33.2376 93.0732 34.2721 93.0732 35.6236V42.8151C91.5425 43.3908 90.07 43.6828 88.6474 43.6828C87.0252 43.6828 85.8106 43.3491 84.9954 42.69C84.1718 42.0142 83.7642 41.1049 83.7642 39.9369ZM89.9369 41.0715V38.6855C89.4544 38.5019 88.9719 38.4101 88.506 38.4101C87.932 38.4101 87.4994 38.5436 87.1999 38.7939C86.9088 39.0525 86.759 39.4029 86.759 39.8368C86.759 40.7628 87.3746 41.2217 88.5975 41.2217C89.08 41.23 89.5293 41.18 89.9369 41.0715Z" fill="white" fill-opacity="0.5"/>
<path d="M108.63 38.6858L111.508 40.3043C110.843 41.3972 110.003 42.2315 108.979 42.8071C107.956 43.3828 106.891 43.6748 105.793 43.6748C104.096 43.6748 102.624 43.1992 101.367 42.2565C100.111 41.3054 99.4873 40.0039 99.4873 38.327V32.4537C99.4873 30.7851 100.111 29.4753 101.359 28.5242C102.607 27.5732 104.088 27.106 105.793 27.106C106.925 27.106 108.014 27.398 109.046 27.9903C110.086 28.5826 110.859 29.4419 111.375 30.5599L108.696 32.0199C108.397 31.4442 107.956 31.0104 107.382 30.7101C106.808 30.4097 106.192 30.2762 105.544 30.2929C104.787 30.3096 104.138 30.5098 103.605 30.9103C103.064 31.3024 102.798 31.8196 102.798 32.4537V38.327C102.798 38.9611 103.056 39.47 103.58 39.8538C104.104 40.2292 104.737 40.4294 105.477 40.4461C106.109 40.4628 106.725 40.321 107.307 40.029C107.89 39.7203 108.33 39.2781 108.63 38.6858Z" fill="white" fill-opacity="0.5"/>
<path d="M119.436 39.937L121.499 41.4387C121.075 42.2145 120.484 42.7735 119.727 43.1323C118.97 43.491 118.188 43.6662 117.39 43.6662C116.1 43.6662 114.994 43.2991 114.054 42.5649C113.114 41.8308 112.648 40.8046 112.648 39.4781V35.5904C112.648 34.2555 113.122 33.2293 114.062 32.5035C115.011 31.786 116.134 31.4189 117.431 31.4189C118.704 31.4189 119.777 31.761 120.651 32.4284C121.524 33.1042 121.965 34.1053 121.965 35.4402V38.9025H115.818V39.428C115.818 39.8702 115.992 40.2123 116.342 40.4542C116.691 40.6962 117.107 40.8213 117.589 40.8213C118.455 40.8213 119.07 40.5293 119.436 39.937ZM119.004 36.5665V35.4986C119.004 35.1065 118.854 34.7978 118.546 34.5892C118.247 34.3806 117.881 34.2722 117.456 34.2722C117.015 34.2722 116.633 34.3806 116.308 34.6059C115.984 34.8312 115.818 35.1315 115.818 35.5236V36.5665H119.004Z" fill="white" fill-opacity="0.5"/>
<path d="M123.929 43.4409V32.4534C125.318 31.7693 126.732 31.4272 128.171 31.4272C129.111 31.4272 129.952 31.5607 130.692 31.836C131.432 32.1114 132.056 32.5786 132.556 33.246C133.055 33.9134 133.304 34.7393 133.304 35.7238V43.4409H130.176V35.8406C130.176 35.3233 130.002 34.9312 129.652 34.6726C129.303 34.4056 128.879 34.2721 128.379 34.2721C127.897 34.2721 127.464 34.3806 127.082 34.5892V43.4409H123.929Z" fill="white" fill-opacity="0.5"/>
<path d="M141.124 40.6881V43.2827C139.518 43.8167 138.187 43.7332 137.131 43.0324C136.074 42.3317 135.55 41.0886 135.567 39.3032V29.0332H138.47L138.695 31.6528H140.783V34.5395H138.695V39.2698C138.695 39.9373 138.886 40.3794 139.277 40.6047C139.66 40.8299 140.275 40.855 141.124 40.6881Z" fill="white" fill-opacity="0.5"/>
<path d="M149.343 39.937L151.406 41.4387C150.982 42.2145 150.391 42.7735 149.634 43.1323C148.877 43.491 148.095 43.6662 147.297 43.6662C146.007 43.6662 144.901 43.2991 143.961 42.5649C143.021 41.8308 142.555 40.8046 142.555 39.4781V35.5904C142.555 34.2555 143.029 33.2293 143.969 32.5035C144.917 31.786 146.04 31.4189 147.338 31.4189C148.611 31.4189 149.684 31.761 150.558 32.4284C151.431 33.1042 151.872 34.1053 151.872 35.4402V38.9025H145.724V39.428C145.724 39.8702 145.899 40.2123 146.248 40.4542C146.598 40.6962 147.014 40.8213 147.496 40.8213C148.361 40.8213 148.977 40.5293 149.343 39.937ZM148.91 36.5665V35.4986C148.91 35.1065 148.761 34.7978 148.453 34.5892C148.153 34.3806 147.787 34.2722 147.363 34.2722C146.922 34.2722 146.54 34.3806 146.215 34.6059C145.891 34.8228 145.724 35.1315 145.724 35.5236V36.5665H148.91Z" fill="white" fill-opacity="0.5"/>
<path d="M158.345 31.4272C158.785 31.4272 159.335 31.5023 160 31.6525V34.2054C159.276 34.0052 158.577 34.0385 157.904 34.3055C157.23 34.5725 156.897 35.023 156.897 35.6571V43.4409H153.744V35.6153C153.744 34.2972 154.21 33.271 155.15 32.5285C156.09 31.786 157.155 31.4272 158.345 31.4272Z" fill="white" fill-opacity="0.5"/>
<path d="M17.2704 24.5361C14.5834 24.5361 12.1043 25.3537 10.1826 26.7386C10.3074 26.8221 10.4239 26.9138 10.5487 26.9973C12.3788 25.6958 14.7248 24.9199 17.2704 24.9199H38.3925C38.4174 24.9199 38.4424 24.9199 38.4673 24.9199V24.5361C38.4424 24.5361 38.4174 24.5361 38.3925 24.5361H17.2704Z" fill="white" fill-opacity="0.5"/>
<path d="M12.1875 27.8979C12.3705 27.9897 12.5452 28.0731 12.7366 28.1565C13.9428 27.8061 15.2239 27.6142 16.5467 27.6142H38.0763C38.1346 27.4891 38.1928 27.364 38.2427 27.2305H16.555C15.0243 27.2305 13.5518 27.4641 12.1875 27.8979Z" fill="white" fill-opacity="0.5"/>
<path d="M17.2368 19.5137H38.4254C38.4421 19.5137 38.4504 19.5137 38.467 19.5137V19.1299C38.4504 19.1299 38.4421 19.1299 38.4254 19.1299H17.2368C13.0524 19.1299 9.27552 21.1739 7.43701 24.2273C7.54516 24.3608 7.64499 24.486 7.75314 24.6111C9.45854 21.5743 13.1439 19.5137 17.2368 19.5137Z" fill="white" fill-opacity="0.5"/>
<path d="M17.3202 21.833C13.9926 21.833 10.8397 23.2346 8.68506 25.5622C8.79321 25.6624 8.91799 25.7625 9.03446 25.8626C11.0976 23.6267 14.1257 22.2752 17.3202 22.2752H38.4672V21.833H17.3202Z" fill="white" fill-opacity="0.5"/>
<path d="M38.3424 39.2194H26.2133V39.2611H24.3581V39.2695H20.0738C9.64176 39.2695 1.34768 32.7954 0.415952 24.2607C0.149743 25.2786 0 26.3298 0 27.4143C0 36.9085 10.7149 43.9998 20.2984 43.9998H38.3341C39.6485 43.9998 40.7134 42.932 40.7134 41.6138C40.7217 40.2873 39.6568 39.2194 38.3424 39.2194Z" fill="white" fill-opacity="0.5"/>
<path d="M35.1227 10.8287H27.8269H27.2696H21.5461C17.2701 10.8705 13.0607 12.5307 10.2488 15.3255C8.39368 17.1609 7.26229 19.3718 7.0044 21.6327C9.9743 18.0036 15.4066 15.6092 20.2982 15.6092H27.2696H27.8269H35.1227C36.9696 15.6092 38.467 17.1109 38.467 18.963V19.1382V19.5219V21.8413V22.2834V22.8758V24.5443V24.9281V26.021C38.467 26.4465 38.3838 26.8553 38.2424 27.2307C38.1925 27.3642 38.1425 27.4893 38.076 27.6145C37.4853 28.8075 36.2708 29.6334 34.8565 29.6334H21.3464H20.0736C17.3866 29.6334 14.8992 29.0995 12.7445 28.1651C12.5532 28.0817 12.3785 27.9899 12.1955 27.9065C11.6215 27.6312 11.0641 27.3392 10.5483 27.0055C10.4235 26.922 10.3071 26.8303 10.1823 26.7468C9.78296 26.4715 9.40028 26.1795 9.04257 25.8708C8.9261 25.7707 8.80963 25.6706 8.69317 25.5705C8.3604 25.2701 8.0526 24.9531 7.76143 24.6194C7.65329 24.4943 7.54514 24.3608 7.44531 24.2356C5.96452 22.4002 5.09934 20.1977 5.09934 17.8117C5.09934 15.2004 6.27233 12.5974 8.41032 10.4783C11.2637 7.65013 15.5231 5.98156 19.8739 5.98156C19.9488 5.98156 20.0154 5.98156 20.0819 5.98156H38.1841C39.4986 5.98156 40.5634 4.91368 40.5634 3.59552C40.5634 2.27735 39.4986 1.20947 38.1841 1.20947H20.0986C20.0071 1.20947 19.9155 1.20947 19.824 1.20947C14.2004 1.20947 8.83459 3.34523 5.04943 7.09116C2.00466 10.1113 0.324219 13.9239 0.324219 17.82C0.324219 22.9175 2.92808 27.3892 7.09591 30.4177C7.22902 30.5094 7.34548 30.6179 7.47859 30.7097C7.60337 30.7931 7.73648 30.8682 7.86126 30.9433C11.2055 33.1291 15.4233 34.4306 20.0736 34.4306H21.1384H34.8565C38.7332 34.4306 41.9859 31.7775 42.9343 28.1901C42.9676 28.065 43.0009 27.9398 43.0341 27.8064C43.1589 27.2391 43.2255 26.6467 43.2255 26.0377V25.9459V25.5121V22.9842V22.8841V22.517V20.5231V20.0809V18.9546C43.2338 14.4662 39.5984 10.8287 35.1227 10.8287Z" fill="white" fill-opacity="0.5"/>
</svg>
