<svg width="303" height="32" viewBox="0 0 303 32" fill="none" xmlns="http://www.w3.org/2000/svg">
<path d="M53.4325 8.0136V14.5256H63.18V16.9283H53.4325V23.4403H64.0128V25.843H51.0435V5.62451H64.0128V8.02725H53.4325V8.0136Z" fill="#010101"/>
<path d="M78.1836 11.0444V25.0513C76.1222 25.7749 74.1972 26.1298 72.4088 26.1298C70.8798 26.1162 69.5692 25.6793 68.4634 24.8192C67.3576 23.9592 66.8115 22.7578 66.8115 21.2151V11.0444H69.0914V21.2424C69.0914 22.0616 69.419 22.7168 70.0743 23.1947C70.7296 23.6861 71.5078 23.9319 72.4088 23.9455C73.774 23.9455 74.9481 23.7817 75.8901 23.4541V11.0444H78.1836Z" fill="#010101"/>
<path d="M88.5047 10.8804V13.0237C88.2316 12.9691 87.8357 12.9418 87.3033 12.9418C86.3477 12.9418 85.5559 13.1875 84.9142 13.6654C84.2726 14.1568 83.9586 14.8258 83.9586 15.7131V25.8565H81.6787V15.7131C81.6787 14.1568 82.2384 12.9418 83.3716 12.0817C84.5047 11.2217 85.7879 10.7848 87.2351 10.7711C87.7129 10.7575 88.1361 10.7984 88.5047 10.8804Z" fill="#010101"/>
<path d="M89.9927 21.2016V15.7135C89.9927 14.1708 90.5661 12.9694 91.6992 12.0957C92.8323 11.2357 94.1838 10.7851 95.7401 10.7715C97.2828 10.7851 98.6207 11.2357 99.7402 12.0957C100.86 12.9694 101.433 14.1708 101.433 15.7135V21.2016C101.433 22.7579 100.873 23.9729 99.7402 24.833C98.6071 25.6931 97.2828 26.1299 95.7401 26.1436C94.1838 26.1299 92.8323 25.6931 91.6992 24.833C90.5661 23.9729 89.9927 22.7579 89.9927 21.2016ZM95.7265 12.9285C94.8118 12.9285 94.0063 13.1606 93.3101 13.6247C92.6138 14.0889 92.2725 14.7579 92.2725 15.6452V21.2152C92.2725 22.0889 92.6138 22.7715 93.3101 23.2494C94.0063 23.7272 94.8118 23.9593 95.7265 23.9593C96.6275 23.9593 97.4193 23.7272 98.1019 23.2494C98.7845 22.7715 99.1258 22.1026 99.1258 21.2152V15.6452C99.1258 14.7852 98.7845 14.1162 98.1019 13.652C97.4193 13.1742 96.6275 12.9285 95.7265 12.9285Z" fill="#010101"/>
<path d="M104.586 31.031V11.8227C106.757 11.1128 108.696 10.7715 110.389 10.7715C111.931 10.7851 113.255 11.222 114.375 12.0684C115.494 12.9148 116.04 14.1162 116.04 15.6862V21.1743C116.04 22.7169 115.467 23.932 114.32 24.8193C113.173 25.7067 111.836 26.1436 110.293 26.1163C109.051 26.1163 107.917 25.8432 106.866 25.3108V31.031H104.586ZM106.88 13.3107V23.2903C108.068 23.7272 109.214 23.9456 110.334 23.9456C111.249 23.932 112.04 23.6726 112.723 23.1948C113.406 22.7033 113.733 22.048 113.733 21.2016V15.6589C113.733 14.8398 113.406 14.1845 112.737 13.7067C112.068 13.2152 111.29 12.9831 110.389 12.9831C108.832 12.9694 107.658 13.0787 106.88 13.3107Z" fill="#010101"/>
<path d="M121.119 19.5906V21.3927C121.119 22.2527 121.447 22.908 122.116 23.3449C122.785 23.7954 123.59 24.0139 124.546 24.0139C125.269 24.0139 125.938 23.8364 126.566 23.4951C127.181 23.1538 127.645 22.6623 127.918 22.007L129.925 22.8671C129.433 23.9183 128.696 24.7238 127.713 25.2835C126.73 25.8432 125.679 26.1299 124.559 26.1299C123.017 26.1299 121.679 25.693 120.532 24.833C119.385 23.9729 118.812 22.7579 118.812 21.2152V15.6725C118.812 14.1162 119.385 12.9012 120.519 12.0411C121.652 11.181 123.003 10.7578 124.559 10.7578C126.088 10.7578 127.413 11.181 128.532 12.0411C129.652 12.9012 130.225 14.1025 130.225 15.6725V19.5906H121.119ZM128.027 17.6793V15.5633C128.027 14.7442 127.672 14.0889 126.962 13.5974C126.252 13.1059 125.447 12.8602 124.532 12.8602C123.536 12.8602 122.716 13.1059 122.061 13.5838C121.406 14.0752 121.078 14.7578 121.106 15.6316V17.693H128.027V17.6793Z" fill="#010101"/>
<path d="M141.433 17.5019V15.536C141.433 14.7169 141.092 14.0616 140.409 13.5974C139.726 13.1196 138.907 12.8875 137.952 12.8875C136.395 12.8875 135.167 13.4199 134.293 14.4848L132.86 13.0786C133.528 12.3414 134.334 11.7681 135.276 11.3585C136.218 10.9626 137.174 10.7578 138.116 10.7578C139.645 10.7578 140.955 11.181 142.061 12.0138C143.167 12.8466 143.713 14.0206 143.713 15.536V25.1333C141.72 25.8432 139.672 26.1709 137.597 26.1299C136.013 26.1162 134.744 25.7203 133.761 24.9422C132.778 24.164 132.3 23.0173 132.3 21.5019C132.313 19.9592 132.86 18.7852 133.911 17.9797C134.962 17.1742 136.286 16.7783 137.87 16.7783C139.126 16.792 140.313 17.0377 141.433 17.5019ZM141.433 23.9046V19.1538C140.327 18.7715 139.221 18.5804 138.116 18.5804C137.105 18.5804 136.273 18.8125 135.604 19.2903C134.935 19.7681 134.593 20.5053 134.58 21.4882C134.58 22.3893 134.866 23.0446 135.426 23.4951C135.986 23.9319 136.737 24.164 137.665 24.1777C139.112 24.2323 140.368 24.1367 141.433 23.9046Z" fill="#010101"/>
<path d="M147.099 25.8569V11.9865C149.447 11.1674 151.372 10.7578 152.873 10.7578C154.416 10.7988 155.727 11.222 156.819 12.0547C157.911 12.8875 158.443 14.0752 158.443 15.6179V25.8569H156.191V15.536C156.191 14.7032 155.85 14.0479 155.194 13.5838C154.525 13.1196 153.761 12.8875 152.873 12.8875C151.713 12.8875 150.553 13.1059 149.392 13.5428V25.8569H147.099Z" fill="#010101"/>
<path d="M168.273 5.62451H175.14C177.27 5.62451 179.085 6.14329 180.587 7.16718C182.089 8.19108 182.826 9.70644 182.826 11.7133V19.7952C182.826 21.1468 182.444 22.2935 181.679 23.2355C180.915 24.1775 179.973 24.8464 178.853 25.256C177.734 25.6519 176.491 25.8567 175.14 25.8567H168.273V5.62451ZM170.676 23.454H175.14C176.628 23.454 177.884 23.1536 178.894 22.5393C179.918 21.9249 180.423 21.0103 180.423 19.7952V11.6996C180.423 10.4573 179.918 9.54262 178.894 8.92828C177.87 8.31394 176.614 8.0136 175.14 8.0136H170.676V23.454Z" fill="#010101"/>
<path d="M194.457 17.5019V15.536C194.457 14.7169 194.116 14.0616 193.433 13.5974C192.751 13.1196 191.932 12.8875 190.976 12.8875C189.42 12.8875 188.191 13.4199 187.317 14.4848L185.884 13.0786C186.553 12.3414 187.358 11.7681 188.3 11.3585C189.242 10.9626 190.198 10.7578 191.14 10.7578C192.669 10.7578 193.98 11.181 195.085 12.0138C196.191 12.8466 196.737 14.0206 196.737 15.536V25.1333C194.744 25.8432 192.696 26.1709 190.621 26.1299C189.038 26.1162 187.768 25.7203 186.785 24.9422C185.802 24.164 185.324 23.0173 185.324 21.5019C185.338 19.9592 185.884 18.7852 186.935 17.9797C187.986 17.1742 189.311 16.7783 190.894 16.7783C192.15 16.792 193.324 17.0377 194.457 17.5019ZM194.457 23.9046V19.1538C193.352 18.7715 192.246 18.5804 191.14 18.5804C190.13 18.5804 189.297 18.8125 188.628 19.2903C187.959 19.7681 187.618 20.5053 187.604 21.4882C187.604 22.3893 187.891 23.0446 188.451 23.4951C189.01 23.9319 189.761 24.164 190.689 24.1777C192.123 24.2323 193.379 24.1367 194.457 23.9046Z" fill="#010101"/>
<path d="M206.116 24.1093V26.0888C205.693 26.1297 205.406 26.1434 205.229 26.1434C203.7 26.1434 202.457 25.7065 201.502 24.8328C200.533 23.9591 200.055 22.7714 200.055 21.2833V7.30371H202.307V11.0443H205.338V13.1604H202.307V21.2833C202.307 22.198 202.662 22.9488 203.358 23.5359C204.068 24.1229 204.983 24.314 206.116 24.1093Z" fill="#010101"/>
<path d="M216.519 17.5019V15.536C216.519 14.7169 216.178 14.0616 215.495 13.5974C214.812 13.1196 213.993 12.8875 213.038 12.8875C211.481 12.8875 210.253 13.4199 209.379 14.4848L207.945 13.0786C208.614 12.3414 209.42 11.7681 210.362 11.3585C211.304 10.9626 212.259 10.7578 213.201 10.7578C214.73 10.7578 216.041 11.181 217.147 12.0138C218.253 12.8466 218.799 14.0206 218.799 15.536V25.1333C216.806 25.8432 214.758 26.1709 212.683 26.1299C211.099 26.1162 209.829 25.7203 208.846 24.9422C207.864 24.164 207.386 23.0173 207.386 21.5019C207.399 19.9592 207.945 18.7852 208.997 17.9797C210.048 17.1742 211.372 16.7783 212.956 16.7783C214.212 16.792 215.386 17.0377 216.519 17.5019ZM216.519 23.9046V19.1538C215.413 18.7715 214.307 18.5804 213.201 18.5804C212.191 18.5804 211.358 18.8125 210.69 19.2903C210.021 19.7681 209.679 20.5053 209.666 21.4882C209.666 22.3893 209.952 23.0446 210.512 23.4951C211.072 23.9319 211.823 24.164 212.751 24.1777C214.198 24.2323 215.454 24.1367 216.519 23.9046Z" fill="#010101"/>
<path d="M227.918 19.8226V11.727C227.918 9.74745 228.683 8.17747 230.226 7.04436C231.755 5.8976 233.57 5.32422 235.645 5.32422C237.188 5.32422 238.608 5.66552 239.919 6.36177C241.229 7.05802 242.185 8.06826 242.785 9.37885L240.642 10.4027C240.192 9.52902 239.495 8.84642 238.553 8.3686C237.625 7.89078 236.615 7.6587 235.55 7.6587C234.144 7.6587 232.915 8.01365 231.878 8.7372C230.84 9.46076 230.321 10.43 230.321 11.6724V19.8226C230.321 21.0649 230.84 22.0205 231.878 22.7168C232.915 23.3994 234.144 23.7407 235.55 23.7407C236.642 23.7407 237.652 23.5086 238.581 23.0444C239.509 22.5803 240.205 21.9113 240.642 21.024L242.785 22.0205C242.157 23.3311 241.174 24.355 239.837 25.0649C238.499 25.7748 237.079 26.1434 235.55 26.1434C233.488 26.1434 231.7 25.5837 230.198 24.4779C228.683 23.3584 227.918 21.8021 227.918 19.8226Z" fill="#010101"/>
<path d="M247.127 19.5906V21.3927C247.127 22.2527 247.454 22.908 248.123 23.3449C248.792 23.7954 249.598 24.0139 250.553 24.0139C251.277 24.0139 251.946 23.8364 252.574 23.4951C253.188 23.1538 253.652 22.6623 253.925 22.007L255.932 22.8671C255.441 23.9183 254.703 24.7238 253.72 25.2835C252.737 25.8432 251.686 26.1299 250.567 26.1299C249.024 26.1299 247.686 25.693 246.539 24.833C245.393 23.9729 244.819 22.7579 244.819 21.2152V15.6725C244.819 14.1162 245.393 12.9012 246.526 12.0411C247.659 11.181 249.01 10.7578 250.567 10.7578C252.096 10.7578 253.42 11.181 254.54 12.0411C255.659 12.9012 256.232 14.1025 256.232 15.6725V19.5906H247.127ZM254.048 17.6793V15.5633C254.048 14.7442 253.693 14.0889 252.983 13.5974C252.273 13.1059 251.468 12.8602 250.553 12.8602C249.557 12.8602 248.737 13.1059 248.082 13.5838C247.427 14.0752 247.099 14.7578 247.127 15.6316V17.693H254.048V17.6793Z" fill="#010101"/>
<path d="M259.154 25.8569V11.9865C261.502 11.1674 263.427 10.7578 264.929 10.7578C266.471 10.7988 267.782 11.222 268.874 12.0547C269.966 12.8875 270.499 14.0752 270.499 15.6179V25.8569H268.246V15.536C268.246 14.7032 267.905 14.0479 267.249 13.5838C266.58 13.1196 265.816 12.8875 264.929 12.8875C263.768 12.8875 262.608 13.1059 261.447 13.5428V25.8569H259.154Z" fill="#010101"/>
<path d="M280 24.1093V26.0888C279.577 26.1297 279.291 26.1434 279.113 26.1434C277.584 26.1434 276.342 25.7065 275.386 24.8328C274.417 23.9591 273.939 22.7714 273.939 21.2833V7.30371H276.192V11.0443H279.222V13.1604H276.192V21.2833C276.192 22.198 276.546 22.9488 277.243 23.5359C277.953 24.1229 278.867 24.314 280 24.1093Z" fill="#010101"/>
<path d="M284.028 19.5906V21.3927C284.028 22.2527 284.356 22.908 285.024 23.3449C285.693 23.7954 286.499 24.0139 287.455 24.0139C288.178 24.0139 288.847 23.8364 289.475 23.4951C290.089 23.1538 290.554 22.6623 290.827 22.007L292.833 22.8671C292.342 23.9183 291.605 24.7238 290.622 25.2835C289.639 25.8432 288.588 26.1299 287.468 26.1299C285.925 26.1299 284.588 25.693 283.441 24.833C282.294 23.9729 281.721 22.7579 281.721 21.2152V15.6725C281.721 14.1162 282.294 12.9012 283.427 12.0411C284.56 11.181 285.912 10.7578 287.468 10.7578C288.997 10.7578 290.321 11.181 291.441 12.0411C292.56 12.9012 293.134 14.1025 293.134 15.6725V19.5906H284.028ZM290.936 17.6793V15.5633C290.936 14.7442 290.581 14.0889 289.871 13.5974C289.161 13.1059 288.356 12.8602 287.441 12.8602C286.444 12.8602 285.625 13.1059 284.97 13.5838C284.315 14.0752 283.987 14.7578 284.014 15.6316V17.693H290.936V17.6793Z" fill="#010101"/>
<path d="M302.826 10.8804V13.0237C302.553 12.9691 302.158 12.9418 301.625 12.9418C300.669 12.9418 299.878 13.1875 299.236 13.6654C298.594 14.1568 298.28 14.8258 298.28 15.7131V25.8565H296V15.7131C296 14.1568 296.56 12.9418 297.693 12.0817C298.826 11.2217 300.11 10.7848 301.557 10.7711C302.035 10.7575 302.472 10.7984 302.826 10.8804Z" fill="#010101"/>
<path d="M13.8282 17.4473C11.8077 17.4473 9.95101 18.0616 8.50391 19.0992C8.59947 19.1674 8.68138 19.2357 8.77694 19.2903C10.1558 18.321 11.9169 17.7476 13.8282 17.7476H29.6781C29.6917 17.7476 29.719 17.7476 29.7327 17.7476V17.4609C29.719 17.4609 29.6917 17.4609 29.6781 17.4609L13.8282 17.4473Z" fill="url(#paint0_linear)"/>
<path d="M10.0195 19.9729C10.1561 20.0412 10.2926 20.1094 10.4291 20.164C11.3301 19.9046 12.2994 19.7545 13.2823 19.7545H29.4326C29.4736 19.6589 29.5145 19.5633 29.5555 19.4678H13.2823C12.1492 19.4678 11.0434 19.6452 10.0195 19.9729Z" fill="url(#paint1_linear)"/>
<path d="M13.8008 13.6929H29.6917C29.7053 13.6929 29.7053 13.6929 29.719 13.6929V13.4062C29.7053 13.4062 29.6917 13.4062 29.6917 13.4062H13.8008C10.6609 13.4062 7.8349 14.9353 6.45605 17.2151C6.53797 17.3107 6.60623 17.4063 6.70179 17.5018C7.97142 15.2356 10.7291 13.6929 13.8008 13.6929Z" fill="url(#paint2_linear)"/>
<path d="M13.869 15.4268C11.3707 15.4268 9.00888 16.478 7.39795 18.2118C7.47986 18.2937 7.57542 18.3619 7.65734 18.4438C9.20001 16.7646 11.4799 15.7544 13.869 15.7544H29.7325V15.4268H13.869Z" fill="url(#paint3_linear)"/>
<path d="M29.6236 28.4368H20.5314V28.4641H19.1389H15.9307C8.10809 28.4641 1.8828 23.6176 1.18655 17.2422C0.981774 18.0067 0.872559 18.7985 0.872559 19.604C0.872559 26.703 8.91355 31.9999 16.0945 31.9999H29.6236C30.6065 31.9999 31.412 31.1945 31.412 30.2115C31.412 29.2286 30.6201 28.4368 29.6236 28.4368Z" fill="url(#paint4_linear)"/>
<path d="M27.2212 7.20823H21.7467H21.3235H17.0368C13.8286 7.23553 10.675 8.47786 8.55896 10.5666C7.16646 11.9454 6.32004 13.5973 6.12892 15.2902C8.35418 12.5734 12.4361 10.785 16.1085 10.785H21.3372H21.7604H27.2348C28.6137 10.785 29.7468 11.9045 29.7468 13.297V13.4199V13.7066V15.4403V15.768V16.2049V17.4608V17.7475V18.5666C29.7468 18.8806 29.6785 19.1946 29.583 19.4677C29.542 19.5632 29.501 19.6588 29.4601 19.7544C29.0232 20.6417 28.1085 21.2561 27.0437 21.2561H16.9003H15.9447C13.9378 21.2561 12.0675 20.8602 10.4429 20.1503C10.3064 20.0957 10.1699 20.0274 10.0334 19.9591C9.59651 19.7544 9.18695 19.5359 8.8047 19.2765C8.70913 19.2219 8.62722 19.1537 8.53166 19.0854C8.23132 18.8806 7.94462 18.6622 7.67159 18.4301C7.58967 18.3619 7.49411 18.28 7.4122 18.198C7.16646 17.966 6.93438 17.7339 6.71595 17.4881C6.63404 17.3926 6.55213 17.297 6.47021 17.2014C5.3371 15.8499 4.69546 14.2117 4.69546 12.4233C4.69546 10.471 5.58284 8.51881 7.18012 6.93519C9.32347 4.81914 12.518 3.57681 15.7808 3.57681C15.8354 3.57681 15.8901 3.57681 15.9447 3.57681H29.5283C30.5113 3.57681 31.3168 2.77134 31.3168 1.7884C31.3168 0.805465 30.4976 0 29.501 0H15.9447C15.8764 0 15.8081 0 15.7399 0C11.5214 0 7.49411 1.59728 4.65451 4.39593C2.37463 6.6485 1.11865 9.50175 1.11865 12.4233C1.11865 16.2322 3.07088 19.5769 6.19718 21.8431C6.29274 21.9114 6.3883 21.9933 6.48387 22.0615C6.57943 22.1298 6.67499 22.1844 6.77056 22.239C9.26886 23.8773 12.4361 24.8465 15.931 24.8465H16.7365H27.03C29.9379 24.8465 32.3816 22.867 33.0915 20.1776C33.1188 20.082 33.1461 19.9864 33.1598 19.8909C33.2553 19.4677 33.2963 19.0172 33.2963 18.5666V18.4984V18.1707V16.2868V16.2185V15.9455V14.4711V14.1434V13.2833C33.2963 9.92496 30.5795 7.20823 27.2212 7.20823Z" fill="url(#paint5_linear)"/>
<defs>
<linearGradient id="paint0_linear" x1="19.1135" y1="19.4039" x2="19.1135" y2="13.276" gradientUnits="userSpaceOnUse">
<stop stop-color="#E92429"/>
<stop offset="0.25" stop-color="#F89E22"/>
<stop offset="0.5" stop-color="#FBE400"/>
<stop offset="0.75" stop-color="#A9CC39"/>
<stop offset="1" stop-color="#51B84A"/>
</linearGradient>
<linearGradient id="paint1_linear" x1="19.7853" y1="19.4039" x2="19.7853" y2="13.2761" gradientUnits="userSpaceOnUse">
<stop stop-color="#E92429"/>
<stop offset="0.25" stop-color="#F89E22"/>
<stop offset="0.5" stop-color="#FBE400"/>
<stop offset="0.75" stop-color="#A9CC39"/>
<stop offset="1" stop-color="#51B84A"/>
</linearGradient>
<linearGradient id="paint2_linear" x1="18.0856" y1="19.4038" x2="18.0856" y2="13.276" gradientUnits="userSpaceOnUse">
<stop stop-color="#E92429"/>
<stop offset="0.25" stop-color="#F89E22"/>
<stop offset="0.5" stop-color="#FBE400"/>
<stop offset="0.75" stop-color="#A9CC39"/>
<stop offset="1" stop-color="#51B84A"/>
</linearGradient>
<linearGradient id="paint3_linear" x1="18.5558" y1="19.4038" x2="18.5558" y2="13.276" gradientUnits="userSpaceOnUse">
<stop stop-color="#E92429"/>
<stop offset="0.25" stop-color="#F89E22"/>
<stop offset="0.5" stop-color="#FBE400"/>
<stop offset="0.75" stop-color="#A9CC39"/>
<stop offset="1" stop-color="#51B84A"/>
</linearGradient>
<linearGradient id="paint4_linear" x1="16.1432" y1="0.759512" x2="16.1432" y2="31.0892" gradientUnits="userSpaceOnUse">
<stop stop-color="#E92429"/>
<stop offset="0.25" stop-color="#F89E22"/>
<stop offset="0.5" stop-color="#FBE400"/>
<stop offset="0.75" stop-color="#A9CC39"/>
<stop offset="1" stop-color="#51B84A"/>
</linearGradient>
<linearGradient id="paint5_linear" x1="17.2062" y1="0.759731" x2="17.2062" y2="31.0894" gradientUnits="userSpaceOnUse">
<stop stop-color="#E92429"/>
<stop offset="0.25" stop-color="#F89E22"/>
<stop offset="0.5" stop-color="#FBE400"/>
<stop offset="0.75" stop-color="#A9CC39"/>
<stop offset="1" stop-color="#51B84A"/>
</linearGradient>
</defs>
</svg>
